<svg width="267" height="46" xmlns="http://www.w3.org/2000/svg" xmlns:xlink="http://www.w3.org/1999/xlink" xml:space="preserve" overflow="hidden"><defs><clipPath id="clip0"><rect x="373" y="445" width="267" height="46"/></clipPath></defs><g clip-path="url(#clip0)" transform="translate(-373 -445)"><path d="M471.108 199.444C469.002 199.444 467.433 199.67 466.406 200.121 465.379 200.572 464.866 201.273 464.866 202.225 464.866 202.901 465.144 203.445 465.704 203.859 466.264 204.272 467.024 204.479 467.987 204.479 469.261 204.479 470.412 204.122 471.439 203.408 472.466 202.694 472.981 201.699 472.981 200.421L472.981 199.444ZM362.146 199.444C360.04 199.444 358.474 199.67 357.444 200.121 356.417 200.572 355.905 201.273 355.905 202.225 355.905 202.901 356.185 203.445 356.742 203.859 357.302 204.272 358.064 204.479 359.025 204.479 360.3 204.479 361.451 204.122 362.48 203.408 363.507 202.694 364.02 201.699 364.02 200.421L364.02 199.444ZM480.514 186.822 485.899 186.822 490.191 201.962 490.387 201.962 494.679 186.822 499.866 186.822 504.198 201.962 504.393 201.962 508.646 186.822 514.032 186.822 507.008 208.011 501.779 208.011 497.369 192.945 497.176 192.945 492.766 208.011 487.577 208.011ZM469.352 186.296C471.981 186.296 474.074 186.997 475.635 188.4 477.195 189.802 477.975 191.68 477.975 194.035L477.975 208.011 472.981 208.011 472.981 205.305 472.746 205.305C472.228 206.331 471.415 207.128 470.309 207.69 469.204 208.254 467.975 208.536 466.62 208.536 464.592 208.536 462.948 207.997 461.686 206.92 460.424 205.844 459.792 204.379 459.792 202.525 459.792 200.271 460.735 198.518 462.622 197.266 464.508 196.013 467.129 195.387 470.484 195.387L472.981 195.387 472.981 194.335C472.981 193.108 472.611 192.144 471.869 191.443 471.128 190.741 470.12 190.391 468.845 190.391 467.18 190.391 465.568 191.142 464.008 192.645L460.885 190.015C463.174 187.536 465.996 186.296 469.352 186.296ZM457.336 186.296 457.57 186.296 457.57 191.104 457.218 191.104C454.513 191.104 452.465 191.618 451.074 192.645 449.682 193.672 448.986 195.074 448.986 196.852L448.986 208.011 443.992 208.011 443.836 186.822 448.986 186.822 448.986 190.729 449.18 190.729C450.013 189.326 451.113 188.237 452.478 187.461 453.844 186.684 455.462 186.296 457.336 186.296ZM401.381 186.296C403.384 186.296 405.146 186.747 406.668 187.648 408.189 188.55 409.366 189.79 410.198 191.368L406.141 193.359C405.568 192.407 404.866 191.668 404.035 191.142 403.201 190.616 402.33 190.353 401.42 190.353 400.354 190.353 399.514 190.566 398.903 190.992 398.291 191.418 397.986 191.981 397.986 192.682 397.986 193.309 398.351 193.847 399.078 194.298 399.806 194.749 400.99 195.162 402.629 195.537 407.676 196.614 410.198 198.731 410.198 201.886 410.198 203.189 409.836 204.347 409.107 205.361 408.378 206.376 407.363 207.159 406.062 207.71 404.761 208.26 403.279 208.536 401.616 208.536 399.403 208.536 397.499 208.06 395.899 207.109 394.299 206.156 393.134 204.879 392.406 203.276L396.58 201.36C397.05 202.337 397.725 203.101 398.61 203.652 399.495 204.203 400.496 204.479 401.616 204.479 402.734 204.479 403.592 204.278 404.189 203.877 404.788 203.477 405.087 202.938 405.087 202.262 405.087 201.586 404.755 201.029 404.092 200.59 403.429 200.152 402.369 199.783 400.912 199.482 398.312 198.906 396.327 198.098 394.962 197.059 393.595 196.02 392.914 194.648 392.914 192.945 392.914 190.892 393.68 189.27 395.216 188.08 396.749 186.891 398.806 186.296 401.381 186.296ZM381.503 186.296C383.506 186.296 385.268 186.747 386.79 187.648 388.311 188.55 389.489 189.79 390.32 191.368L386.263 193.359C385.69 192.407 384.988 191.668 384.157 191.142 383.323 190.616 382.452 190.353 381.542 190.353 380.476 190.353 379.636 190.566 379.025 190.992 378.413 191.418 378.109 191.981 378.109 192.682 378.109 193.309 378.473 193.847 379.2 194.298 379.928 194.749 381.112 195.162 382.751 195.537 387.798 196.614 390.32 198.731 390.32 201.886 390.32 203.189 389.956 204.347 389.229 205.361 388.5 206.376 387.486 207.159 386.185 207.71 384.883 208.26 383.401 208.536 381.736 208.536 379.525 208.536 377.621 208.06 376.021 207.109 374.42 206.156 373.257 204.879 372.528 203.276L376.703 201.36C377.172 202.337 377.847 203.101 378.732 203.652 379.618 204.203 380.618 204.479 381.736 204.479 382.856 204.479 383.714 204.278 384.311 203.877 384.91 203.477 385.209 202.938 385.209 202.262 385.209 201.586 384.877 201.029 384.214 200.59 383.552 200.152 382.491 199.783 381.034 199.482 378.434 198.906 376.449 198.098 375.085 197.059 373.718 196.02 373.036 194.648 373.036 192.945 373.036 190.892 373.802 189.27 375.338 188.08 376.871 186.891 378.928 186.296 381.503 186.296ZM360.392 186.296C363.019 186.296 365.113 186.997 366.673 188.4 368.234 189.802 369.014 191.68 369.014 194.035L369.014 208.011 364.02 208.011 364.02 205.305 363.787 205.305C363.266 206.331 362.453 207.128 361.348 207.69 360.242 208.254 359.013 208.536 357.661 208.536 355.631 208.536 353.986 207.997 352.724 206.92 351.462 205.844 350.832 204.379 350.832 202.525 350.832 200.271 351.775 198.518 353.661 197.266 355.546 196.013 358.167 195.387 361.523 195.387L364.02 195.387 364.02 194.335C364.02 193.108 363.649 192.144 362.908 191.443 362.167 190.741 361.158 190.391 359.884 190.391 358.218 190.391 356.607 191.142 355.046 192.645L351.923 190.015C354.212 187.536 357.035 186.296 360.392 186.296ZM419.073 183.253 419.073 203.351 423.56 203.351C426.916 203.351 429.506 202.475 431.325 200.722 433.147 198.969 434.057 196.502 434.057 193.321 434.057 190.115 433.18 187.636 431.424 185.883 429.668 184.13 427.151 183.253 423.873 183.253ZM413.922 178.595 424.184 178.595C427.385 178.595 430.123 179.189 432.398 180.379 434.675 181.569 436.404 183.272 437.588 185.488 438.771 187.705 439.364 190.316 439.364 193.321 439.364 196.327 438.747 198.931 437.509 201.135 436.274 203.339 434.467 205.036 432.087 206.226 429.707 207.416 426.852 208.011 423.521 208.011L413.922 208.011ZM340.764 178.595 345.719 178.595 345.719 202.262C345.719 203.214 346.213 203.69 347.203 203.69L348.294 203.69 348.294 208.198 345.797 208.198C344.158 208.198 342.909 207.815 342.05 207.052 341.194 206.288 340.764 205.18 340.764 203.727ZM325.668 178.069C328.089 178.069 330.222 178.62 332.068 179.721 333.915 180.824 335.372 182.326 336.439 184.23L332.029 186.446C331.352 185.269 330.423 184.355 329.24 183.704 328.056 183.052 326.788 182.727 325.435 182.727 323.743 182.727 322.242 183.165 320.927 184.042 319.614 184.918 318.599 186.146 317.884 187.723 317.168 189.301 316.812 191.117 316.812 193.171 316.812 195.249 317.168 197.103 317.884 198.731 318.599 200.359 319.614 201.623 320.927 202.525 322.242 203.427 323.743 203.877 325.435 203.877 326.761 203.877 328.004 203.546 329.161 202.882 330.318 202.218 331.288 201.298 332.068 200.121L336.478 202.375C335.385 204.328 333.882 205.844 331.971 206.92 330.059 207.997 327.893 208.536 325.474 208.536 322.743 208.536 320.318 207.892 318.197 206.601 316.077 205.311 314.424 203.502 313.24 201.173 312.057 198.843 311.466 196.176 311.466 193.171 311.466 190.215 312.057 187.592 313.24 185.3 314.424 183.009 316.089 181.23 318.236 179.966 320.381 178.701 322.86 178.069 325.668 178.069Z" fill-rule="evenodd" transform="matrix(1 0 0 1.00203 125.968 274.202)"/><path d="M253.242 171.275 286.728 171.275C289.702 171.275 292.115 173.687 292.115 176.662L292.115 203.595 247.855 203.595 247.855 176.662C247.855 173.687 250.268 171.275 253.242 171.275Z" stroke="#BFBFBF" stroke-width="1.65117" stroke-miterlimit="8" fill="#FFFFFF" fill-rule="evenodd" transform="matrix(1 0 0 1.00203 125.968 274.202)"/><path d="M247.855 203.595 292.115 203.595 292.115 210.648C292.115 213.347 289.927 215.535 287.228 215.535L252.742 215.535C250.043 215.535 247.855 213.347 247.855 210.648L247.855 203.595Z" stroke="#0064A8" stroke-width="1.65117" stroke-miterlimit="8" fill="#007ACC" fill-rule="evenodd" transform="matrix(1 0 0 1.00203 125.968 274.202)"/><path d="M265.353 207.712 274.411 207.712 274.411 211.418 265.353 211.418Z" fill="#B3D7F0" transform="matrix(1 0 0 1.00203 125.968 274.202)"/><path d="M269.789 193.269C270.312 193.269 270.761 193.464 271.138 193.853 271.515 194.242 271.704 194.708 271.704 195.253 271.704 195.798 271.515 196.261 271.138 196.642 270.761 197.023 270.312 197.214 269.789 197.214 269.267 197.214 268.822 197.019 268.453 196.63 268.083 196.241 267.9 195.782 267.9 195.253 267.9 194.708 268.083 194.242 268.453 193.853 268.822 193.464 269.267 193.269 269.789 193.269ZM270.251 178.892C271.265 178.892 272.179 179.067 272.995 179.417 273.81 179.767 274.454 180.269 274.932 180.923 275.407 181.576 275.646 182.346 275.646 183.233 275.646 183.871 275.527 184.435 275.288 184.925 275.051 185.416 274.767 185.832 274.436 186.174 274.104 186.516 273.655 186.921 273.087 187.388 272.579 187.823 272.179 188.185 271.887 188.473 271.597 188.761 271.35 189.103 271.15 189.5 270.95 189.897 270.85 190.336 270.85 190.819 270.85 191.099 270.866 191.309 270.897 191.449L268.291 191.449C268.108 190.842 268.015 190.305 268.015 189.838 268.015 189.029 268.215 188.356 268.614 187.819 269.013 187.283 269.59 186.703 270.343 186.081 270.942 185.583 271.381 185.166 271.657 184.832 271.934 184.497 272.072 184.104 272.072 183.653 272.072 183.14 271.881 182.735 271.496 182.44 271.111 182.144 270.613 181.996 269.997 181.996 268.521 181.996 267.438 182.868 266.747 184.61L264.118 183.047C264.624 181.708 265.413 180.681 266.481 179.966 267.55 179.25 268.805 178.892 270.251 178.892Z" fill-rule="evenodd" transform="matrix(1 0 0 1.00203 125.968 274.202)"/></g></svg>